<svg width="288" height="267" viewBox="0 0 288 267" fill="none" xmlns="http://www.w3.org/2000/svg">
<rect width="116" height="83" rx="4" fill="#006FFD" fill-opacity="0.5"/>
<path d="M33 138.638C33 209.054 90.0837 266.138 160.5 266.138C230.916 266.138 288 209.054 288 138.638C288 68.2214 213.146 108.429 142.73 108.429C72.3137 108.429 33 68.2214 33 138.638Z" fill="#006FFD" fill-opacity="0.2"/>
<mask id="mask0_153_421" style="mask-type:alpha" maskUnits="userSpaceOnUse" x="33" y="11" width="255" height="255">
<circle cx="127.5" cy="127.5" r="127.5" transform="matrix(-1 0 0 1 288 11)" fill="#C4C4C4"/>
</mask>
<g mask="url(#mask0_153_421)">
<path d="M87.9152 214.115C91.1364 188.99 84.4463 162.825 69.5298 142.358L67.944 143.547C82.5631 163.618 89.1541 189.238 85.9825 213.868L87.9152 214.115Z" fill="#456C0A"/>
<path d="M86.4782 215.305L88.4605 215.255C87.8163 192.162 87.172 168.325 94.0108 145.777C94.9028 142.754 96.0426 141.218 97.5789 140.921L97.232 138.988C94.1595 139.583 92.871 142.804 92.1277 145.183C85.1898 168.028 85.834 192.063 86.4782 215.305Z" fill="#456C0A"/>
<path d="M83.4552 212.629C85.5861 199.149 81.572 184.828 72.8006 174.371C71.8094 173.182 70.6201 171.943 69.1334 171.299L68.3405 173.083C69.4307 173.578 70.3228 174.47 71.3139 175.66C79.7385 185.67 83.6039 199.348 81.5225 212.331L83.4552 212.629Z" fill="#456C0A"/>
<path d="M87.7171 217.237H89.6993C89.6002 196.969 93.1683 181.012 100.552 168.524C101.841 166.294 103.526 163.816 105.855 162.032C108.184 160.297 110.959 159.603 113.288 160.248L113.833 158.315C110.959 157.522 107.54 158.315 104.715 160.396C102.088 162.329 100.304 165.055 98.9168 167.433C91.2356 180.368 87.618 196.622 87.7171 217.237Z" fill="#456C0A"/>
<path d="M85.6358 215.8C85.8835 202.618 86.2304 186.215 94.3577 173.777L92.7223 172.686C84.2977 185.571 83.9508 202.321 83.6535 215.751L85.6358 215.8Z" fill="#456C0A"/>
<path d="M54.3161 203.758H119.582L113.932 257.774H59.916L54.3161 203.758Z" fill="#7C5327"/>
<path d="M51.987 211.291H121.861L122.506 203.758H51.3923L51.987 211.291Z" fill="#936134"/>
<path d="M53.9692 181.507C56.5461 167.681 70.5706 164.064 70.5706 164.064C74.4359 162.18 79.2925 161.09 82.8605 163.469C84.9914 164.906 86.2304 167.334 87.3206 169.663C88.4108 171.993 89.402 174.421 89.4515 176.998C89.5011 179.575 88.4108 182.3 86.1312 183.49C84.2481 178.484 80.0854 174.421 75.0802 172.637C78.6978 175.561 81.4234 179.624 82.7614 184.084C83.0092 184.927 83.2074 185.819 82.9596 186.661C82.7614 187.355 82.2658 187.9 81.7703 188.396C78.7969 191.419 75.1297 193.698 71.1157 195.135C70.075 192.608 68.4892 190.279 66.4574 188.396C67.5476 190.675 68.0927 193.203 67.9441 195.73C67.8945 196.275 67.845 196.82 67.6467 197.316C67.3494 197.96 66.8043 198.456 66.2096 198.852C62.6415 201.33 57.9337 200.983 53.6223 201.132C46.288 201.429 39.0032 203.51 32.6104 207.178C32.5609 207.178 51.3427 195.334 53.9692 181.507Z" fill="#548611"/>
<path d="M34.8405 192.806C35.1378 191.468 35.7325 190.229 36.3767 189.04C38.6067 184.728 41.5306 180.764 45.0491 177.444C43.9093 178.038 42.819 178.633 41.6792 179.277C44.9004 169.961 53.4736 162.676 63.1867 161.041C66.1105 160.545 70.0254 161.189 70.6201 164.113C70.6201 164.113 56.5957 167.731 53.9692 181.557C51.3427 195.383 32.5609 207.227 32.5609 207.227C33.6016 204.501 34.1962 201.627 34.3449 198.753C34.4936 196.721 34.3945 194.739 34.8405 192.806Z" fill="#456C0A"/>
<path d="M131.277 172.538C131.426 160.545 120.276 155.143 120.276 155.143C117.352 152.913 113.486 151.179 110.117 152.616C108.085 153.458 106.648 155.292 105.359 157.076C104.071 158.86 102.832 160.694 102.386 162.874C101.94 165.005 102.386 167.483 104.071 168.871C106.449 165.005 110.612 162.28 115.122 161.685C111.603 163.518 108.63 166.442 106.796 169.961C106.449 170.605 106.102 171.348 106.202 172.092C106.251 172.686 106.598 173.231 106.945 173.727C108.927 176.75 111.603 179.277 114.725 181.111C116.014 179.178 117.748 177.493 119.73 176.254C118.442 177.939 117.55 180.021 117.253 182.152C117.203 182.598 117.153 183.093 117.253 183.539C117.401 184.134 117.798 184.629 118.194 185.075C120.771 187.751 124.785 188.247 128.353 189.089C134.449 190.576 140.197 193.5 144.955 197.663C144.905 197.613 131.178 184.53 131.277 172.538Z" fill="#456C0A"/>
<path d="M145.401 185.175C145.351 184.035 145.103 182.845 144.756 181.755C143.617 177.791 141.832 173.975 139.454 170.605C140.296 171.299 141.139 171.993 141.981 172.686C140.841 164.361 134.895 156.828 127.065 153.805C124.686 152.913 121.316 152.814 120.325 155.143C120.325 155.143 131.475 160.545 131.327 172.538C131.178 184.53 144.905 197.613 144.905 197.613C144.509 195.185 144.459 192.658 144.806 190.229C145.054 188.544 145.45 186.859 145.401 185.175Z" fill="#548611"/>
<path d="M102.98 147.165C104.071 135.321 93.5152 129.126 93.5152 129.126C90.8392 126.698 87.1225 124.716 83.7031 125.806C81.6217 126.5 80.0359 128.135 78.6483 129.82C77.2608 131.455 75.8732 133.19 75.2289 135.271C74.5847 137.353 74.8821 139.83 76.4183 141.317C79.0943 137.7 83.4057 135.37 87.9154 135.073C84.2977 136.609 81.1261 139.285 79.0448 142.606C78.6483 143.25 78.2519 143.894 78.3014 144.637C78.3014 145.232 78.5988 145.777 78.8961 146.322C80.6306 149.444 83.0588 152.17 85.9827 154.251C87.4198 152.418 89.2534 150.931 91.3347 149.841C89.8976 151.427 88.9065 153.359 88.4109 155.441C88.3118 155.887 88.2127 156.333 88.3118 156.779C88.4109 157.373 88.7578 157.919 89.1047 158.365C91.4339 161.189 95.3488 161.982 98.8177 163.122C104.715 165.055 110.166 168.424 114.478 172.885C114.428 172.934 101.89 158.959 102.98 147.165Z" fill="#66990C"/>
<path d="M115.865 160.743C115.915 159.603 115.716 158.464 115.518 157.324C114.725 153.31 113.239 149.444 111.157 145.876C111.95 146.62 112.693 147.363 113.486 148.106C113.04 139.83 107.787 131.951 100.255 128.333C97.9753 127.243 94.655 126.896 93.5152 129.126C93.5152 129.126 104.071 135.321 102.98 147.165C101.89 159.009 114.378 172.984 114.378 172.984C114.18 170.555 114.329 168.078 114.874 165.699C115.27 164.014 115.816 162.428 115.865 160.743Z" fill="#548611"/>
<path d="M98.0246 185.918C101.741 174.619 92.8212 166.244 92.8212 166.244C90.7399 163.271 87.5682 160.495 84.0002 160.842C81.8197 161.041 79.9366 162.329 78.1526 163.618C76.4181 164.906 74.6836 166.294 73.5934 168.177C72.5031 170.06 72.2058 172.538 73.3951 174.322C76.8145 171.398 81.5224 170.06 85.9824 170.803C82.1171 171.497 78.4499 173.38 75.6252 176.155C75.0801 176.651 74.5845 177.245 74.4358 177.989C74.3367 178.584 74.4358 179.178 74.6341 179.773C75.6252 183.192 77.3597 186.413 79.7879 189.04C81.5719 187.603 83.7029 186.513 85.9824 185.918C84.248 187.157 82.8108 188.842 81.9188 190.725C81.7206 191.121 81.5224 191.567 81.5224 192.013C81.4728 192.608 81.671 193.203 81.9684 193.748C83.6037 197.018 87.2214 198.654 90.3434 200.537C95.6955 203.709 100.205 208.218 103.426 213.521C103.426 213.62 94.3575 197.217 98.0246 185.918Z" fill="#93C91C"/>
<path d="M107.589 202.024C107.886 200.933 107.986 199.744 107.986 198.604C108.085 194.491 107.49 190.378 106.301 186.513C106.895 187.405 107.49 188.297 108.035 189.238C109.472 181.012 106.053 172.191 99.561 166.987C97.5787 165.451 94.4071 164.311 92.8213 166.244C92.8213 166.244 101.741 174.619 98.0247 185.918C94.308 197.217 103.426 213.62 103.426 213.62C103.773 211.192 104.467 208.813 105.557 206.632C106.251 205.096 107.143 203.659 107.589 202.024Z" fill="#71B70B"/>
<path d="M57.3391 146.917C58.0329 136.362 68.1919 132.347 68.1919 132.347C70.9175 130.563 74.436 129.325 77.3103 130.811C79.0448 131.703 80.1846 133.388 81.2253 135.073C82.2164 136.708 83.2075 138.443 83.4553 140.376C83.7031 142.308 83.158 144.439 81.5721 145.529C79.7386 141.961 76.2201 139.285 72.3051 138.443C75.2785 140.326 77.7068 143.101 79.0943 146.322C79.3421 146.917 79.5899 147.611 79.4908 148.255C79.3917 148.8 79.0943 149.246 78.7474 149.643C76.8147 152.17 74.2378 154.202 71.4131 155.639C70.422 153.805 68.9848 152.22 67.2999 151.03C68.3406 152.616 68.9353 154.499 69.084 156.382C69.1335 156.779 69.1335 157.225 68.9848 157.572C68.8362 158.067 68.4397 158.513 68.0433 158.86C65.615 161.041 62.047 161.189 58.8258 161.685C53.3251 162.577 48.0721 164.757 43.6616 168.078C43.6616 168.028 56.6453 157.473 57.3391 146.917Z" fill="#93C91C"/>
<path d="M44.058 157.076C44.1571 156.035 44.504 155.044 44.8509 154.103C46.1393 150.683 47.9729 147.462 50.3021 144.637C49.5092 145.183 48.7163 145.728 47.9729 146.273C49.5092 138.988 55.3073 132.793 62.3938 130.712C64.5247 130.068 67.5477 130.217 68.1919 132.347C68.1919 132.347 58.0329 136.312 57.3391 146.917C56.6453 157.473 43.6615 168.078 43.6615 168.078C44.2066 165.947 44.4049 163.766 44.2562 161.586C44.1571 160.049 43.9093 158.563 44.058 157.076Z" fill="#71B70B"/>
<path d="M125.961 143.418L168.463 118.412L202.436 176.153L159.934 201.159L125.961 143.418Z" fill="#5F3916"/>
<path d="M130.901 145.426L168.195 123.483L197.842 173.873L160.548 195.815L130.901 145.426Z" fill="#F2F2F3"/>
<path d="M144.826 141.272L167.905 127.694C168.024 127.624 168.177 127.663 168.247 127.782C168.317 127.901 168.277 128.054 168.158 128.124L145.079 141.703C144.96 141.773 144.807 141.733 144.737 141.614C144.667 141.495 144.707 141.342 144.826 141.272Z" fill="#191919"/>
<g clip-path="url(#clip0_153_421)">
<path d="M200.101 59.2753C199.993 59.7471 199.831 60.2606 199.717 60.7801C199.015 63.6524 198.258 67.343 198.185 67.9164C198.149 68.5913 196.273 73.063 196.373 74.9687C196.472 76.8743 197.413 78.6436 196.767 79.9211C196.12 81.1986 192.252 88.3797 191.672 89.1316C191.092 89.8836 190.157 92.2897 192.975 93.0339C195.746 93.772 195.191 93.168 195.573 93.9928C195.573 93.9928 195.011 94.2131 194.371 94.6663C193.57 95.2447 192.721 96.2054 192.737 97.6151C192.799 100.196 194.967 100.712 194.727 101.458C194.487 102.205 194.276 103.877 194.562 104.69C194.889 105.556 194.421 107.73 193.995 108.793C193.57 109.856 188.421 124.496 197.989 125.218C207.552 125.989 213.497 119.653 214.819 122.635C214.891 122.838 215.01 123.047 215.123 123.304C216.392 126.328 217.796 130.971 216.748 132.732C215.635 134.63 214.212 135.519 214.212 135.519L234.479 136.087L251.959 119.897C251.959 119.897 249.215 112.027 250.927 104.234C251.149 103.242 251.419 102.257 251.779 101.332C251.779 101.332 260.946 78.3158 259.563 66.9767C258.179 55.6376 249.209 44.4085 234.087 41.9169C218.966 39.4253 196.304 48.214 194.067 50.5527C191.842 52.796 200.858 56.3613 200.101 59.2753Z" fill="#F7B492"/>
<path d="M200.102 59.2743C199.994 59.746 199.832 60.2595 199.717 60.7791C203.249 60.1084 206.533 60.6202 206.533 60.6202C206.533 60.6202 210.331 61.2939 211.972 63.297C213.606 65.3479 212.11 72.1975 214.724 73.7896C217.339 75.3818 215.553 75.3019 216.614 81.5036C217.628 87.6992 212.326 90.8645 210.657 92.5469C208.989 94.2293 204.109 98.6615 203.35 98.9055C202.591 99.1494 199.688 99.4624 198.52 97.1792C197.775 95.7745 195.781 95.0373 194.365 94.713C193.564 95.2915 192.715 96.2521 192.731 97.6618C192.793 100.242 194.961 100.759 194.721 101.505C194.481 102.252 194.27 103.924 194.556 104.737C194.883 105.603 194.415 107.777 193.989 108.84C193.564 109.902 188.415 124.543 197.983 125.265C207.546 126.036 213.491 119.699 214.813 122.682C214.885 122.885 215.004 123.094 215.117 123.351C223.624 117.484 225.914 106.269 226.585 104.412C227.323 102.418 224.169 92.7965 224.561 89.6909C224.953 86.5852 227.282 82.3649 231.589 82.0835C235.896 81.8021 238.359 85.3653 240.149 91.1736C241.149 94.4064 246.47 99.9324 250.939 104.137C251.161 103.146 251.431 102.161 251.791 101.235C251.791 101.235 260.959 78.2192 259.575 66.8801C258.191 55.541 249.221 44.3119 234.1 41.8203C218.978 39.3287 196.316 48.1173 194.079 50.4561C191.843 52.7949 200.858 56.3602 200.102 59.2743Z" fill="black"/>
<path d="M240.119 90.0198C240.864 93.5827 236.503 98.0144 234.007 100.653C235.223 100.306 239.76 95.3661 241.766 92.9846C241.54 92.6544 240.821 90.7511 240.119 90.0198Z" fill="black" fill-opacity="0.4"/>
<path d="M228.74 89.8695C229.851 88.2069 233.404 86.6125 235.041 86.023C227.83 86.0131 226.963 90.9672 227.431 93.4455C227.404 92.9462 227.628 91.5321 228.74 89.8695Z" fill="black" fill-opacity="0.4"/>
<path d="M228.5 83C231 81 237.4 82.3 239 87.5L228.5 83Z" fill="#F7B492"/>
<path d="M199 75.4999C199 76.3284 198.328 76.9999 197.5 76.9999C196.672 76.9999 196.5 76.3284 196.5 75.4999C196.5 74.6715 196.171 73.9999 197 73.9999C197.828 73.9999 199 74.6715 199 75.4999Z" fill="black"/>
<path d="M198 69C199.5 68.6666 203.3 68.5 206.5 70.5" stroke="black" stroke-width="1.5"/>
</g>
<path d="M154.956 137.824L168.999 129.562C169.118 129.492 169.271 129.532 169.341 129.651C169.411 129.77 169.371 129.923 169.252 129.993L155.21 138.255C155.091 138.325 154.937 138.285 154.867 138.166C154.797 138.047 154.837 137.894 154.956 137.824Z" fill="#191919"/>
<path d="M136.554 146.202L138.449 145.087C138.687 144.947 138.994 145.026 139.134 145.264L140.249 147.159C140.389 147.397 140.309 147.703 140.071 147.844L138.176 148.958C137.938 149.098 137.632 149.019 137.492 148.781L136.377 146.886C136.237 146.648 136.316 146.342 136.554 146.202Z" stroke="black" stroke-width="0.5" stroke-miterlimit="10"/>
<path d="M147.698 146.15L170.777 132.572C170.896 132.502 171.049 132.541 171.119 132.66C171.189 132.779 171.149 132.933 171.03 133.003L147.951 146.581C147.832 146.651 147.679 146.612 147.609 146.493C147.539 146.374 147.579 146.22 147.698 146.15Z" fill="#191919"/>
<path d="M157.783 142.626L171.826 134.364C171.945 134.294 172.098 134.334 172.168 134.453C172.238 134.572 172.198 134.725 172.079 134.795L158.036 143.057C157.917 143.127 157.764 143.087 157.694 142.968C157.624 142.849 157.664 142.696 157.783 142.626Z" fill="#191919"/>
<path d="M139.381 151.003L141.276 149.888C141.514 149.748 141.821 149.828 141.961 150.066L143.075 151.961C143.216 152.199 143.136 152.505 142.898 152.645L141.003 153.76C140.765 153.9 140.459 153.821 140.319 153.583L139.204 151.688C139.064 151.45 139.143 151.143 139.381 151.003Z" stroke="black" stroke-width="0.5" stroke-miterlimit="10"/>
<path d="M151.21 152.113L174.289 138.534C174.408 138.464 174.561 138.504 174.631 138.623C174.701 138.742 174.662 138.895 174.543 138.965L151.464 152.544C151.345 152.614 151.191 152.574 151.121 152.455C151.051 152.336 151.091 152.183 151.21 152.113Z" fill="#191919"/>
<path d="M161.341 148.665L175.383 140.403C175.502 140.333 175.655 140.372 175.725 140.491C175.795 140.61 175.756 140.764 175.637 140.834L161.594 149.096C161.475 149.166 161.322 149.126 161.252 149.007C161.182 148.888 161.221 148.735 161.341 148.665Z" fill="#191919"/>
<path d="M142.939 157.042L144.834 155.927C145.072 155.787 145.378 155.867 145.518 156.105L146.633 158C146.773 158.238 146.694 158.544 146.456 158.684L144.561 159.799C144.323 159.939 144.016 159.86 143.876 159.622L142.761 157.727C142.621 157.489 142.701 157.182 142.939 157.042Z" stroke="black" stroke-width="0.5" stroke-miterlimit="10"/>
<path d="M154.617 157.871L177.696 144.293C177.815 144.223 177.968 144.262 178.038 144.381C178.108 144.5 178.068 144.654 177.949 144.724L154.87 158.302C154.751 158.372 154.598 158.333 154.528 158.214C154.458 158.095 154.498 157.941 154.617 157.871Z" fill="#191919"/>
<path d="M164.747 154.423L178.789 146.161C178.908 146.091 179.062 146.131 179.132 146.25C179.202 146.369 179.162 146.522 179.043 146.592L165 154.854C164.881 154.924 164.728 154.885 164.658 154.766C164.588 154.647 164.628 154.493 164.747 154.423Z" fill="#191919"/>
<path d="M146.3 162.724L148.195 161.609C148.433 161.469 148.739 161.549 148.88 161.787L149.994 163.682C150.134 163.92 150.055 164.226 149.817 164.366L147.922 165.481C147.684 165.621 147.378 165.542 147.238 165.304L146.123 163.409C145.983 163.171 146.062 162.864 146.3 162.724Z" stroke="black" stroke-width="0.5" stroke-miterlimit="10"/>
<path d="M158.26 163.979L181.339 150.4C181.458 150.33 181.611 150.37 181.681 150.489C181.751 150.608 181.712 150.761 181.593 150.831L158.514 164.41C158.395 164.48 158.241 164.44 158.171 164.321C158.101 164.202 158.141 164.049 158.26 163.979Z" fill="#191919"/>
<path d="M168.345 160.454L182.388 152.192C182.507 152.122 182.66 152.162 182.73 152.281C182.8 152.4 182.76 152.553 182.641 152.623L168.599 160.885C168.48 160.955 168.326 160.915 168.256 160.796C168.186 160.677 168.226 160.524 168.345 160.454Z" fill="#191919"/>
<path d="M149.944 168.831L151.839 167.717C152.077 167.577 152.383 167.656 152.523 167.894L153.638 169.789C153.778 170.027 153.699 170.333 153.461 170.473L151.566 171.588C151.328 171.728 151.021 171.649 150.881 171.411L149.766 169.516C149.626 169.278 149.706 168.972 149.944 168.831Z" stroke="black" stroke-width="0.5" stroke-miterlimit="10"/>
<path d="M162.747 171.705L185.827 158.127C185.946 158.057 186.099 158.096 186.169 158.215C186.239 158.334 186.199 158.488 186.08 158.558L163.001 172.136C162.882 172.206 162.729 172.167 162.659 172.048C162.589 171.929 162.628 171.775 162.747 171.705Z" fill="#191919"/>
<path d="M172.13 167.438L186.604 158.922L187.144 159.841L172.671 168.357L172.13 167.438Z" fill="#191919"/>
<path d="M154.431 176.558L156.326 175.443C156.564 175.303 156.87 175.383 157.01 175.621L158.125 177.516C158.265 177.754 158.186 178.06 157.948 178.2L156.053 179.315C155.815 179.455 155.508 179.376 155.368 179.138L154.254 177.243C154.113 177.005 154.193 176.698 154.431 176.558Z" stroke="black" stroke-width="0.5" stroke-miterlimit="10"/>
<path d="M167.044 178.91L190.123 165.331C190.242 165.261 190.395 165.301 190.465 165.42C190.535 165.539 190.496 165.692 190.377 165.762L167.298 179.341C167.179 179.411 167.025 179.371 166.955 179.252C166.885 179.133 166.925 178.98 167.044 178.91Z" fill="#191919"/>
<path d="M176.959 175.588L191.432 167.073L191.973 167.992L177.499 176.507L176.959 175.588Z" fill="#191919"/>
<path d="M158.728 183.763L160.623 182.648C160.861 182.508 161.167 182.587 161.307 182.825L162.422 184.72C162.562 184.958 162.483 185.264 162.245 185.404L160.35 186.519C160.112 186.659 159.805 186.58 159.665 186.342L158.55 184.447C158.41 184.209 158.49 183.903 158.728 183.763Z" stroke="black" stroke-width="0.5" stroke-miterlimit="10"/>
<path d="M136.162 146.514L138.597 148.111C138.731 148.199 138.909 148.102 138.907 147.942L138.868 144.901L138.99 142.267" stroke="black" stroke-width="0.5" stroke-miterlimit="10"/>
<path d="M151.798 128.174L154.286 132.528L145.312 137.859L142.735 133.505L141.669 134.127L145.045 139.902L156.063 133.505L152.686 127.641L151.798 128.174Z" fill="#B3B4B4"/>
<path d="M129.674 294.679C126.12 321.779 127.364 328.176 129.408 328.709C133.85 329.864 147.178 303.031 161.571 278.509C162.904 276.287 166.014 271.045 171.523 265.181C173.033 263.582 174.188 262.516 174.455 262.249C178.364 258.517 184.139 249.632 192.847 227.775L191.159 223.066L162.46 204.141L161.394 203.43C150.821 233.817 140.247 264.204 129.674 294.679Z" fill="url(#paint0_linear_153_421)"/>
<path d="M159.794 208.228C163.793 211.516 169.212 215.425 176.143 218.801C181.829 221.556 187.16 223.333 191.514 224.488C191.869 226.265 192.136 228.131 192.491 229.908C194.89 244.923 195.334 259.051 194.624 272.2C207.862 274.422 223.5 276.199 241.27 276.199C256.463 276.199 270.057 275.044 281.874 273.267C282.941 253.364 284.096 233.462 285.162 213.559C288.805 173.31 285.606 142.479 278.32 131.373C272.901 123.11 265.97 120.355 265.97 120.355C260.195 118.045 254.597 118.756 251.488 119.378C242.336 119.556 234.873 120.444 229.542 121.333C218.524 123.021 208.751 124.62 197.644 130.307C191.514 133.416 186.449 136.082 181.563 141.413C174.277 149.498 173.566 157.406 169.124 175.443C167.169 183.261 164.237 194.545 159.794 208.228Z" fill="#FFA500"/>
<path opacity="0.2" d="M205.819 174.021C205.819 174.021 197.111 221.556 196.223 223.155C196.045 223.688 195.867 224.132 195.69 224.665C195.245 224.754 194.712 224.754 194.179 224.754C193.202 224.754 192.313 224.665 191.514 224.577C192.225 228.042 193.113 232.662 193.557 237.016C194.268 243.591 194.357 246.256 194.357 246.256C194.357 247.145 194.357 247.411 194.446 247.411C194.89 247.322 197.467 231.685 205.819 174.021Z" fill="black"/>
</g>
<rect x="55" y="28" width="30" height="1" rx="0.5" fill="white"/>
<rect x="102.5" y="28.5" width="6" height="6" rx="0.5" stroke="white"/>
<rect x="55" y="34" width="38" height="1" rx="0.5" fill="white"/>
<rect x="55" y="40" width="30" height="1" rx="0.5" fill="white"/>
<rect x="102.5" y="40.5" width="6" height="6" rx="0.5" stroke="white"/>
<rect x="55" y="46" width="38" height="1" rx="0.5" fill="white"/>
<rect x="55" y="52" width="30" height="1" rx="0.5" fill="white"/>
<rect x="102.5" y="52.5" width="6" height="6" rx="0.5" stroke="white"/>
<rect x="55" y="58" width="38" height="1" rx="0.5" fill="white"/>
<path d="M28.5 61.5C23.257 61.5 19.36 61.408 16.572 61.298C12.574 61.14 8.5 58.254 8.5 53.75V53.666C8.52 51.943 9.413 50.606 10.606 49.751C11.772 48.914 13.254 48.5 14.686 48.5H42.314C43.746 48.5 45.227 48.913 46.394 49.75C47.587 50.607 48.48 51.943 48.499 53.666L48.5 53.75C48.5 58.254 44.426 61.14 40.428 61.298C37.64 61.408 33.743 61.5 28.5 61.5Z" fill="#FFA500" fill-opacity="0.701961"/>
<path fill-rule="evenodd" clip-rule="evenodd" d="M13.8111 53.206C12.3861 52.256 10.1091 52.512 8.63611 52.826C7.72511 53.021 6.69911 52.929 6.20011 52.142C5.57411 51.152 5.26311 49.824 5.11711 48.569C4.84111 46.191 6.16711 43.806 8.49411 43.243C10.9861 42.641 13.5011 43.157 15.9541 44.794C18.1991 46.291 20.3121 46.291 22.5561 44.794C26.1411 42.402 29.8581 42.402 33.4441 44.794C35.6881 46.291 37.8011 46.291 40.0451 44.794C42.4981 43.157 45.0131 42.641 47.5051 43.244C49.8321 43.806 51.1591 46.191 50.8821 48.569C50.7361 49.824 50.4251 51.153 49.7991 52.141C49.3011 52.929 48.2751 53.021 47.3631 52.826C45.8911 52.512 43.6131 52.256 42.1891 53.206C38.6031 55.598 34.8861 55.598 31.3001 53.206C29.0561 51.709 26.9431 51.709 24.7001 53.206C21.1131 55.598 17.3971 55.598 13.8111 53.206Z" fill="#A52A2A" fill-opacity="0.8"/>
<path d="M49.9 39.326C49.657 37.4 47.89 36.394 45.95 36.302C43.01 36.162 37.542 36 28 36C18.073 36 12.556 36.175 9.70601 36.318C7.97801 36.405 6.39901 37.261 6.13901 38.972C6.0423 39.6436 5.99584 40.3215 6.00001 41C6.00001 41.8 6.05501 42.47 6.14001 43.028C6.40001 44.738 7.97801 45.595 9.70601 45.682C12.556 45.825 18.073 46 28 46C37.542 46 43.01 45.838 45.95 45.698C47.89 45.606 49.656 44.6 49.9 42.674C49.962 42.19 50 41.634 50 41C50 40.366 49.962 39.81 49.9 39.326Z" fill="#A52A2A" fill-opacity="0.8"/>
<path d="M28.5 18.5C25.883 18.5 23.598 18.543 21.618 18.613C14.359 18.868 8.5 24.506 8.5 31.875C8.5 33.602 8.694 35.093 8.906 36.211C9.274 38.147 10.816 39.521 12.714 39.771C15.154 40.094 19.924 40.5 28.5 40.5C37.076 40.5 41.846 40.094 44.286 39.772C46.183 39.521 47.726 38.147 48.094 36.211C48.306 35.093 48.5 33.601 48.5 31.875C48.5 24.506 42.64 18.868 35.382 18.613C33.402 18.543 31.117 18.5 28.5 18.5Z" fill="#FFA500" fill-opacity="0.701961"/>
<path fill-rule="evenodd" clip-rule="evenodd" d="M41 29.5C40.6022 29.5 40.2206 29.658 39.9393 29.9393C39.658 30.2206 39.5 30.6022 39.5 31C39.5 31.3978 39.658 31.7794 39.9393 32.0607C40.2206 32.342 40.6022 32.5 41 32.5H41.5C41.8978 32.5 42.2794 32.342 42.5607 32.0607C42.842 31.7794 43 31.3978 43 31C43 30.6022 42.842 30.2206 42.5607 29.9393C42.2794 29.658 41.8978 29.5 41.5 29.5H41ZM33.5 27C33.5 26.6022 33.658 26.2206 33.9393 25.9393C34.2206 25.658 34.6022 25.5 35 25.5H35.5C35.8978 25.5 36.2794 25.658 36.5607 25.9393C36.842 26.2206 37 26.6022 37 27C37 27.3978 36.842 27.7794 36.5607 28.0607C36.2794 28.342 35.8978 28.5 35.5 28.5H35C34.6022 28.5 34.2206 28.342 33.9393 28.0607C33.658 27.7794 33.5 27.3978 33.5 27ZM34.5 32.5C34.8978 32.5 35.2794 32.658 35.5607 32.9393C35.842 33.2206 36 33.6022 36 34C36 34.3978 35.842 34.7794 35.5607 35.0607C35.2794 35.342 34.8978 35.5 34.5 35.5H34C33.6022 35.5 33.2206 35.342 32.9393 35.0607C32.658 34.7794 32.5 34.3978 32.5 34C32.5 33.6022 32.658 33.2206 32.9393 32.9393C33.2206 32.658 33.6022 32.5 34 32.5H34.5Z" fill="#A52A2A" fill-opacity="0.8"/>
<defs>
<linearGradient id="paint0_linear_153_421" x1="192.771" y1="266.077" x2="64.6244" y2="266.077" gradientUnits="userSpaceOnUse">
<stop stop-color="#FFA279"/>
<stop offset="0.3514" stop-color="#F7B390"/>
<stop offset="0.992608" stop-color="#F8BC9C"/>
</linearGradient>
<clipPath id="clip0_153_421">
<rect width="68" height="95.4986" fill="white" transform="matrix(-0.992124 -0.12526 -0.12526 0.992124 263 45.5176)"/>
</clipPath>
</defs>
</svg>
