<svg width="255" height="256" viewBox="0 0 255 256" fill="none" xmlns="http://www.w3.org/2000/svg">
<path d="M255 127.638C255 198.054 197.916 255.138 127.5 255.138C57.0837 255.138 0 198.054 0 127.638C0 57.2214 74.8537 97.4286 145.27 97.4286C215.686 97.4286 255 57.2214 255 127.638Z" fill="#006FFD" fill-opacity="0.2"/>
<mask id="mask0_153_489" style="mask-type:alpha" maskUnits="userSpaceOnUse" x="0" y="0" width="255" height="255">
<circle cx="127.5" cy="127.5" r="127.5" fill="#C4C4C4"/>
</mask>
<g mask="url(#mask0_153_489)">
<g clip-path="url(#clip0_153_489)">
<path d="M152.194 118.71C152.194 118.71 152.529 112.007 153.87 109.125C159.366 104.024 162.952 95.2916 164.058 91.5628C166.539 87.5409 166.539 78.5589 166.471 75.3414C166.404 74.6041 166.404 74.2019 166.404 74.2019C166.069 68.3032 149.178 28.2861 118.478 38.6758C92.604 47.4568 90.459 65.8901 88.7833 82.5137C88.5822 84.1894 88.4481 85.8652 88.247 87.4739C88.0459 88.8815 87.9119 90.2221 87.7108 91.5628C85.0296 109.996 63.5128 124.609 63.5128 124.609L77.9914 157.722C77.9914 157.722 118.88 163.62 119.885 163.755C120.891 163.889 119.684 155.108 119.684 155.108C119.684 155.108 115.797 152.359 114.925 150.482C114.724 150.013 114.791 149.209 114.992 148.27C115.595 145.589 117.405 141.701 117.807 140.897C117.874 140.83 117.874 140.763 117.874 140.763C117.874 140.763 124.51 144.316 129.404 144.651C134.297 144.986 136.442 136.406 136.442 136.406C145.491 133.256 141.804 129.569 143.949 128.228C146.027 126.888 152.194 118.71 152.194 118.71Z" fill="#F7AF8B"/>
<path d="M176.191 256.592H0.504348C0.504348 256.592 0.303259 213.625 2.71635 195.326C5.19648 177.026 21.4849 142.841 39.5831 132.987C57.2121 123.402 57.2791 122.598 64.9206 122.933C63.647 123 61.3009 123.737 67.8029 130.105C76.0476 138.149 89.3196 147.533 89.3196 147.533C89.3196 147.533 109.563 166.905 120.221 154.504C120.69 153.298 121.159 151.823 121.36 149.946C121.762 146.461 120.958 143.578 120.422 141.97C122.567 142.908 124.444 143.511 125.784 143.846C128.666 144.584 130.141 144.919 131.482 144.249C133.023 143.444 134.23 141.567 134.431 141.232C134.967 140.428 134.9 140.16 135.101 140.026C136.71 138.752 148.574 146.26 155.948 158.66C164.729 173.407 165.533 192.443 165.533 192.443L168.617 210.944L170.158 219.993L170.627 222.808L172.169 232.192L172.236 232.729L173.309 239.298L173.51 240.504L174.247 245.062L176.191 256.592Z" fill="#FFA500"/>
<path d="M10.0897 171.53C10.0897 171.53 24.5012 163.285 45.951 178.568L46.9564 180.914C46.9564 180.914 28.5231 166.503 8.9502 174.144L10.0897 171.53Z" fill="white"/>
<path d="M1.84487 203.973C6.26887 203.034 11.4972 202.297 17.463 202.23C31.1372 202.163 42.1301 205.85 49.1013 208.866C49.1683 209.536 49.3024 210.207 49.3694 210.877C46.286 209.67 42.9345 208.531 39.2478 207.592C24.3 203.839 11.028 205.112 1.77783 207.056C1.84486 206.051 1.84487 205.045 1.84487 203.973Z" fill="white"/>
<path d="M0.973511 234.203C5.59861 233.265 11.0951 232.528 17.2619 232.461C32.7459 232.394 45.1466 236.751 52.9221 240.303C53.0561 241.242 53.1232 242.18 53.2572 243.118C49.5035 241.175 45.0795 239.298 39.9852 237.823C23.6968 233.131 9.35231 235.209 0.973511 237.287C0.973511 236.281 0.973511 235.276 0.973511 234.203Z" fill="white"/>
<path d="M45.9509 178.568C45.9509 178.568 82.2144 154.236 161.444 173.34L162.115 175.954C162.115 175.954 98.0335 156.448 46.9564 180.914L45.9509 178.568Z" fill="white"/>
<path d="M51.8496 208.665C61.1668 205.85 71.4895 203.369 82.8847 201.694C118.344 196.465 148.843 200.889 170.359 206.252L171.03 208.866C160.037 205.917 147.1 203.369 132.621 202.163C99.2401 199.482 71.3554 205.179 52.3188 210.877C52.1847 210.207 52.0507 209.402 51.8496 208.665Z" fill="white"/>
<path d="M56.1396 241.242C64.3173 237.689 73.7015 234.337 84.4264 231.991C121.427 223.613 153.334 230.651 171.901 236.549L172.571 239.164C161.847 236.147 148.91 233.466 134.163 232.461C100.715 230.182 73.2994 237.354 55.8715 243.722C55.9385 242.85 56.0055 242.046 56.1396 241.242Z" fill="white"/>
<path d="M234.507 142.507C234.507 142.507 224.453 156.248 222.71 157.924C220.967 159.6 241.814 170.526 241.814 170.526L234.507 142.507Z" fill="#F2F2F3"/>
<path d="M128.532 226.697L184.771 145.188C184.771 145.188 233.77 165.834 240.071 175.218C240.071 175.218 241.412 173.274 246.305 173.542C246.305 173.542 235.848 162.013 239.602 143.513L240.473 143.915C240.54 147.736 240.875 152.16 241.881 157.12C243.154 163.756 245.165 169.252 247.042 173.542C224.52 202.432 201.931 231.39 179.408 260.28L128.532 226.697Z" fill="#A52A2A"/>
<path d="M185.642 145.591C185.642 145.591 191.005 140.429 191.541 140.228C192.077 140.027 235.915 162.817 238.127 166.839C238.127 166.839 228.542 149.612 234.775 142.172L239.535 143.513C239.535 143.513 241.344 163.488 243.489 166.839C245.634 170.191 246.238 173.542 246.238 173.542L239.334 176.29L185.642 145.591Z" fill="white"/>
<path d="M173.443 231.924C170.158 233.265 167.611 234.203 167.142 234.337C167.075 234.337 170.292 233.533 173.577 232.461C187.72 228.037 191.474 225.892 193.418 227.769C194.624 228.908 194.691 231.254 193.887 232.528C193.016 233.868 191.474 233.533 187.854 234.27C185.039 234.807 181.62 236.214 174.716 239.03C173.912 239.365 173.51 239.432 173.108 239.7C171.834 240.638 164.192 244.392 163.187 244.928C164.192 244.459 171.499 241.309 174.917 240.236C175.051 240.169 175.521 239.968 176.258 239.901C176.794 239.834 177.397 239.767 177.867 239.968C178.738 240.37 179.207 241.711 179.006 242.649C178.671 244.124 176.727 244.794 175.789 245.129C172.236 246.47 169.086 248.816 165.466 250.023C161.98 251.229 157.087 253.106 150.92 256.39H126.79C123.237 251.698 120.221 243.588 121.829 230.919C121.829 230.919 132.755 217.781 136.576 215.435C136.576 215.435 133.828 217.714 135.101 218.92C136.375 220.127 152.931 217.58 168.482 211.279C168.952 211.078 169.488 210.877 169.957 210.676C181.888 205.85 184.838 203.705 187.653 205.112C187.921 205.246 189.798 206.185 189.932 207.726C190.401 212.15 176.258 217.781 172.973 219.055C172.906 219.055 172.303 219.323 171.432 219.658C166.539 221.669 160.774 224.283 163.053 225.691C163.991 226.227 167.544 224.685 171.901 222.54C171.901 222.54 180.079 217.58 192.546 214.228C193.82 213.893 196.099 213.29 197.641 214.564C198.646 215.368 199.249 216.843 199.048 218.116C198.579 221.065 194.088 221.2 185.977 225.221C180.146 228.104 179.609 229.377 173.443 231.924Z" fill="#F7AF8B"/>
<path opacity="0.4" d="M47.8279 193.784C47.8279 193.784 58.3516 232.796 55.7375 244.124C55.7375 244.124 91.1965 241.041 93.1404 242.917C95.0843 244.794 61.234 244.459 53.4584 245.532C53.5255 245.532 48.4312 200.889 47.8279 193.784Z" fill="black"/>
<path d="M127.125 256.592H94.4138C93.6765 251.028 92.8051 243.655 93.2073 242.85C93.8776 241.51 113.987 235.879 118.746 231.254C122.634 227.5 122.298 244.794 127.125 256.592Z" fill="#FFA500"/>
<path d="M114.791 149.611C114.791 147.241 116.802 142.908 117.808 140.562L120.489 141.903C123.17 147.801 121.494 154.303 119.483 155.309C117.919 154.08 114.791 151.957 114.791 149.611Z" fill="#F7AF8B"/>
<path d="M120.355 141.903C114.121 135.535 106.345 127.089 102.391 120.788C102.391 127.491 115.126 144.137 121.494 151.622C122.406 145.991 121.114 142.796 120.355 141.903Z" fill="black" fill-opacity="0.2"/>
<path d="M148.5 103.5C150 109.445 152 116.33 152 118.312C152 120.294 146 120.128 143 119.798" stroke="black" stroke-opacity="0.2"/>
<path d="M143.5 129C142 129.167 138.2 129.1 135 127.5" stroke="#B55F34"/>
<path d="M153.5 96C155.333 95.5 160.1 96.1 162.5 98.5" stroke="black" stroke-width="1.5"/>
<path d="M159 102.5C159 103.5 158 104 157.5 105C156.395 105 156 104.605 156 103.5C156 102.395 156.895 101.5 158 101.5C159 101.5 159 102.437 159 102.5Z" fill="black"/>
</g>
</g>
<g clip-path="url(#clip1_153_489)">
<path d="M166 73.0705C166 73.0705 157.289 63.406 146.318 64.8154C143.193 65.2181 140.067 66.4933 135.014 70.453C129.694 74.6141 121.649 82.1309 114.534 94.8154C114.201 95.0839 113.004 95.8222 111.275 95.6879C109.813 95.5537 108.815 94.8154 108.416 94.4799C114.6 82.198 112.605 70.9899 108.15 68.8423C103.961 66.8289 95.1839 71.3926 89 81.3926C90.6623 64.7483 92.7902 46.2248 118.457 37.5C148.978 27.0973 165.668 67.0973 166 73.0705Z" fill="black"/>
<path d="M96.5 78C98.1667 75.1667 102.9 70.6 108.5 75C106.833 74 102.1 73.2 96.5 78Z" fill="black" fill-opacity="0.4"/>
<path d="M131.5 87C134.667 86 142.1 85.6 146.5 92" stroke="black" stroke-width="1.5"/>
</g>
<circle cx="138" cy="95" r="2" fill="black"/>
<defs>
<clipPath id="clip0_153_489">
<rect width="344" height="219.592" fill="white" transform="translate(-31 37)"/>
</clipPath>
<clipPath id="clip1_153_489">
<rect width="77" height="60" fill="white" transform="translate(89 36)"/>
</clipPath>
</defs>
</svg>
